<?xml version="1.0" encoding="UTF-8"?>
<svg version="1.1" xmlns="http://www.w3.org/2000/svg" width="500" height="500">
<path d="M0 0 C165 0 330 0 500 0 C500 165 500 330 500 500 C335 500 170 500 0 500 C0 335 0 170 0 0 Z " fill="#E9EBEC" transform="translate(0,0)"/>
<path d="M0 0 C165 0 330 0 500 0 C500 165 500 330 500 500 C335 500 170 500 0 500 C0 335 0 170 0 0 Z M216.375 35.625 C206.48644896 45.65686337 206.48644896 45.65686337 202.2890625 49.2109375 C195.47436433 55.04891385 189.30826216 61.62764809 183 68 C180.35717585 70.66967432 177.71088176 73.33584008 175.0625 76 C174.47267334 76.598125 173.88284668 77.19625 173.27514648 77.8125 C170.31615365 80.78851524 167.30431374 83.63883412 164.12304688 86.37695312 C159.51728131 90.35883675 155.24946341 94.64288185 150.96875 98.96875 C150.13339722 99.8078894 149.29804443 100.64702881 148.43737793 101.51159668 C145.78912914 104.171969 143.14415594 106.83556013 140.5 109.5 C137.01337399 113.01337273 133.52335074 116.52331971 130.03125 120.03125 C129.24455933 120.82623901 128.45786865 121.62122803 127.64733887 122.44030762 C124.19050843 125.9122745 120.71619621 129.30083726 117.00219727 132.49780273 C112.4186198 136.44359126 108.18590068 140.70692238 103.93359375 145.00390625 C103.09586929 145.84541733 102.25814484 146.68692841 101.39503479 147.55393982 C98.74006742 150.22103139 96.08837781 152.89134409 93.4375 155.5625 C89.93913566 159.08757184 86.43739994 162.6092443 82.93359375 166.12890625 C82.14174179 166.92905655 81.34988983 167.72920685 80.53404236 168.55360413 C77.1070077 171.99564325 73.68105348 175.32662418 69.94165039 178.42944336 C68.97090576 179.27772705 68.00016113 180.12601074 67 181 C67 181.66 67 182.32 67 183 C66.11531288 183.3967115 66.11531288 183.3967115 65.2127533 183.80143738 C62.91967944 185.04350653 61.42721574 186.33126897 59.59594727 188.17700195 C58.62958092 189.14359489 58.62958092 189.14359489 57.64369202 190.12971497 C56.95818771 190.82554184 56.27268341 191.52136871 55.56640625 192.23828125 C54.49397926 193.31495308 54.49397926 193.31495308 53.39988708 194.41337585 C51.11601662 196.70842779 48.83918567 199.01032276 46.5625 201.3125 C45.03366515 202.85137061 43.50437326 204.3897873 41.97460938 205.92773438 C38.54332067 209.37890159 35.11628678 212.83422017 31.69429016 216.29460144 C30.18066357 217.81815194 28.65496045 219.3283331 27.12597656 220.83642578 C22.12029474 225.93063252 19.69524672 231.89052288 19.375 239 C19.7460614 246.80231807 22.6069042 253.13814336 28.375 258.4375 C33.98151771 263.06356757 39.78373261 264.45371344 46.90234375 264.29296875 C47.6249086 264.28872391 48.34747345 264.28447906 49.0919342 264.28010559 C51.37418693 264.26346418 53.65551933 264.22584248 55.9375 264.1875 C57.49542985 264.17243423 59.0533737 264.15874916 60.61132812 264.14648438 C64.40790057 264.11360882 68.20379487 264.0619309 72 264 C71.99723462 265.4268298 71.99723462 265.4268298 71.99441338 266.88248444 C71.95000113 290.03486969 71.91714221 313.18724941 71.89637566 336.33966827 C71.88606601 347.53603124 71.8720116 358.73236605 71.84912109 369.92871094 C71.82917772 379.68819494 71.81628129 389.44765856 71.81182301 399.20716238 C71.80921725 404.3740399 71.80309898 409.54085908 71.78853989 414.7077179 C71.77494105 419.57332363 71.77078203 424.43884713 71.77378464 429.30447006 C71.77323551 431.08782778 71.76927181 432.87118832 71.76158905 434.65452957 C71.75159174 437.09534794 71.75404846 439.5358586 71.75949097 441.97668457 C71.75075244 443.02730505 71.75075244 443.02730505 71.74183738 444.09915018 C71.81027076 455.50741449 76.29960091 466.40945741 84 474.8125 C91.39343662 481.72731551 101.6595774 487.11279649 111.89121151 487.13422108 C112.88044296 487.13867892 113.86967441 487.14313676 114.88888258 487.14772969 C115.97339297 487.14754533 117.05790336 487.14736097 118.17527771 487.14717102 C119.32925192 487.15084771 120.48322614 487.1545244 121.67216927 487.1583125 C124.87608729 487.16743029 128.0799752 487.17204707 131.28390396 487.17470181 C134.73947371 487.17860913 138.19502868 487.18818734 141.65058899 487.19691467 C149.99758981 487.21666967 158.34459183 487.22674524 166.69161019 487.23564246 C170.62540697 487.24002798 174.5592024 487.2453942 178.49299812 487.25063133 C191.57598688 487.2676446 204.6589748 487.28213691 217.74197292 487.28938007 C221.13649433 487.29128988 224.53101573 487.29321022 227.92553711 487.29516602 C228.76919966 487.29564976 229.61286222 487.2961335 230.4820903 487.2966319 C244.13686609 487.3049252 257.79155408 487.33024982 271.44629156 487.36274669 C285.47558667 487.39586176 299.50483725 487.41383295 313.53417164 487.41702431 C321.40687921 487.41918558 329.27945883 487.42787753 337.15212822 487.45348549 C343.85971324 487.47525356 350.56713925 487.48321314 357.27475559 487.47351871 C360.69314305 487.46899122 364.11120287 487.47076849 367.52954483 487.49028015 C371.24725957 487.50804047 374.96415325 487.50087129 378.68186951 487.48774719 C379.74630341 487.49871644 380.8107373 487.50968568 381.90742677 487.52098733 C394.5465132 487.41389291 405.91242383 483.70168273 415.15234375 474.96484375 C427.43841342 461.99240147 428.30076765 447.97675745 428.22705078 430.99584961 C428.22648602 429.17188524 428.22680449 427.34792041 428.22793579 425.5239563 C428.22850777 420.59278811 428.21677855 415.66171794 428.20278788 410.73057246 C428.19025467 405.56961872 428.18910798 400.40866254 428.18673706 395.24769592 C428.1805299 385.48379188 428.16412942 375.71993282 428.14403808 365.95604855 C428.1216553 354.83634791 428.11067967 343.71664509 428.10064721 332.59692752 C428.07976251 309.73126011 428.0446014 286.86563258 428 264 C428.91700684 264.02094727 429.83401367 264.04189453 430.77880859 264.06347656 C434.22683035 264.13221946 437.67410935 264.18207152 441.12255859 264.21972656 C442.60640048 264.23966981 444.09016555 264.2668349 445.57373047 264.30175781 C455.39803638 264.52699477 464.24074981 264.37328429 472.40234375 258.17578125 C477.79455739 251.63103339 480.76649964 244.91219305 480.3203125 236.30078125 C478.54317178 223.53570949 468.74713079 215.90278296 459.44238281 207.95776367 C454.7159336 203.8267068 450.2973196 199.41170934 445.87966919 194.95483398 C444.40068091 193.46285757 442.91839498 191.97422447 441.43530273 190.48632812 C437.75552613 186.79331846 434.08127373 183.09482888 430.40686035 179.39648438 C427.28954371 176.25929696 424.17008912 173.12426398 421.04788208 169.99194336 C419.60134931 168.53902092 418.15790833 167.08307719 416.71459961 165.62695312 C412.28727032 161.18327506 407.80885918 156.90792743 403.04931641 152.82446289 C398.73412533 148.98273988 394.72162794 144.82087994 390.65625 140.71875 C389.67823581 139.73631622 388.69991749 138.75418512 387.72131348 137.77233887 C384.12501016 134.16280682 380.53423404 130.54779294 376.94329834 126.93292236 C373.89644421 123.8661925 370.84744874 120.80162086 367.79570007 117.73976135 C366.38241371 116.32008843 364.97222889 114.89733001 363.56213379 113.4744873 C359.18404979 109.07986625 354.74940251 104.86007408 350.04351807 100.82089233 C345.80491124 97.04404945 341.8700135 92.94841526 337.8828125 88.91015625 C336.93533882 87.95572108 335.98748626 87.00166189 335.03927612 86.04795837 C331.0485082 82.03294835 327.06373221 78.01202764 323.08300781 73.98706055 C320.63357292 71.51092088 318.17934973 69.03961278 315.7220726 66.57125664 C314.33676614 65.17671953 312.95705712 63.77662927 311.5774231 62.3764801 C310.74250336 61.53818161 309.90758362 60.69988312 309.04736328 59.83618164 C308.31204376 59.09340469 307.57672424 58.35062775 306.81912231 57.58534241 C305.15086903 55.78099882 305.15086903 55.78099882 303 56 C302.75934814 55.42145264 302.51869629 54.84290527 302.27075195 54.24682617 C300.74995362 51.5578911 299.01938192 50.05371264 296.66796875 48.05078125 C292.5490664 44.43665723 288.63527437 40.70166596 284.80078125 36.79296875 C284.00617996 35.98631271 284.00617996 35.98631271 283.19552612 35.1633606 C281.01151802 32.94370899 278.83113362 30.72069122 276.65991211 28.48852539 C275.04706982 26.8331077 273.42470644 25.18750614 271.80078125 23.54296875 C271.08176384 22.79601997 271.08176384 22.79601997 270.34822083 22.03398132 C264.79039457 16.43510788 258.77759729 12.92410049 250.8125 12.75 C235.40757771 13.07722874 226.4897031 25.36242112 216.375 35.625 Z " fill="#FEFEFE" transform="translate(0,0)"/>
<path d="M0 0 C1.52367187 0.53367188 1.52367187 0.53367188 3.078125 1.078125 C24.28888423 8.9146124 36.66815131 22.13969154 46.37109375 42.23828125 C52.7826873 56.31907117 52.74843127 73.44230938 48 88 C45.08217505 94.68506116 41.54904651 101.28526032 37 107 C33.85716831 105.61242484 31.79021597 104.0117017 29.41235352 101.54418945 C28.38592491 100.48848503 28.38592491 100.48848503 27.33876038 99.41145325 C26.60950851 98.65305649 25.88025665 97.89465973 25.12890625 97.11328125 C23.57024966 95.5196068 22.01098637 93.92652554 20.45117188 92.33398438 C17.99772364 89.81846718 15.5491998 87.29869646 13.11108398 84.76831055 C10.75537851 82.32819328 8.38139635 79.90715159 6.00390625 77.48828125 C5.27667862 76.7238118 4.54945099 75.95934235 3.80018616 75.17170715 C3.11274826 74.47736069 2.42531036 73.78301422 1.71704102 73.06762695 C1.11843765 72.44966751 0.51983429 71.83170807 -0.09690857 71.19502258 C-2.01593384 69.71430541 -2.01593384 69.71430541 -4.73231506 70.30827332 C-5.48065109 70.53654312 -6.22898712 70.76481293 -7 71 C-6.25899411 77.48380153 -2.54463966 80.62509275 2.359375 84.55078125 C4.94398174 86.83385053 7.10186442 89.46141071 9.33984375 92.078125 C12.25604789 95.45406015 15.2918806 98.44924047 18.8125 101.1875 C19.534375 101.785625 20.25625 102.38375 21 103 C21 103.66 21 104.32 21 105 C21.99 105.33 22.98 105.66 24 106 C28.16395846 109.96567473 29.85232004 113.037869 30.203125 118.81640625 C29.87117958 122.38481948 28.35500269 124.39040242 26 127 C22.79214982 129.35242347 19.90350748 129.4684209 16 129 C10.63828068 125.94530187 6.66296621 121.84723056 2.40625 117.42578125 C0.94964678 115.93903365 -0.50739775 114.45271832 -1.96484375 112.96679688 C-4.24119189 110.63456175 -6.51339343 108.29863715 -8.77783203 105.95483398 C-10.97617615 103.68397256 -13.1898914 101.42904456 -15.40625 99.17578125 C-16.07829468 98.47165604 -16.75033936 97.76753082 -17.44274902 97.04206848 C-21.11915698 93.32646192 -23.49416168 91.11230973 -29 91 C-29.68206896 93.63081605 -29.68206896 93.63081605 -29 97 C-26.65812592 100.20929597 -23.80482222 102.86709151 -20.94140625 105.609375 C-20.12252426 106.41739563 -19.30364227 107.22541626 -18.45994568 108.05792236 C-15.84123105 110.63643637 -13.20274896 113.19355704 -10.5625 115.75 C-7.93024381 118.32492371 -5.30214373 120.90400597 -2.67576599 123.48492432 C-1.03971022 125.08975923 0.60060496 126.69026518 2.24546814 128.28607178 C2.98616043 129.00732239 3.72685272 129.728573 4.48999023 130.47167969 C5.14507065 131.10644226 5.80015106 131.74120483 6.4750824 132.39520264 C9.23594193 135.30068427 9.39155746 137.93199046 9.35546875 141.89453125 C8.72046773 145.65569115 6.72377681 147.40291048 4 150 C0.2350613 151.25497957 -2.03008618 151.52064444 -6 151 C-14.32212609 145.46488266 -21.3019873 136.7732501 -28.3125 129.6875 C-30.82653917 127.14685389 -33.34388979 124.60955613 -35.86328125 122.07421875 C-36.43516678 121.49403488 -37.00705231 120.91385101 -37.5962677 120.31608582 C-39.97003245 117.92765205 -42.18816838 115.87455442 -45 114 C-46.32 114 -47.64 114 -49 114 C-49.60624789 116.67031062 -49.60624789 116.67031062 -49 120 C-46.94210105 122.9130279 -44.39264801 125.28038509 -41.81640625 127.734375 C-41.08630844 128.45361145 -40.35621063 129.1728479 -39.60398865 129.91387939 C-37.27056009 132.20713255 -34.91745877 134.47888093 -32.5625 136.75 C-30.21555759 139.03959457 -27.87277903 141.33335548 -25.53172302 143.62896729 C-24.07373056 145.05575787 -22.6114792 146.47821153 -21.14466858 147.89593506 C-20.4840593 148.53710266 -19.82345001 149.17827026 -19.14282227 149.83886719 C-18.55880142 150.40257019 -17.97478058 150.96627319 -17.37306213 151.54705811 C-15.60396211 153.41907794 -14.99591263 154.46148877 -15.015625 157.05859375 C-15.09296875 157.84363281 -15.1703125 158.62867188 -15.25 159.4375 C-15.31703125 160.21996094 -15.3840625 161.00242187 -15.453125 161.80859375 C-16.11438369 164.45835177 -16.76905979 165.43285184 -19 167 C-21.26171875 167.29296875 -21.26171875 167.29296875 -23.6875 167.1875 C-24.89986328 167.14689453 -24.89986328 167.14689453 -26.13671875 167.10546875 C-26.75160156 167.07066406 -27.36648438 167.03585937 -28 167 C-28.24234375 166.39671875 -28.4846875 165.7934375 -28.734375 165.171875 C-31.31068792 158.82297118 -31.31068792 158.82297118 -36 154 C-37.53846782 153.40828161 -39.08050001 152.8257896 -40.625 152.25 C-44.74240583 150.54000247 -44.74240583 150.54000247 -45.8515625 148.21484375 C-46.12042606 146.8468027 -46.3580793 145.4723086 -46.56640625 144.09375 C-47.33520464 140.38135417 -49.33690581 137.64206976 -52 135 C-56.25779157 132.67756824 -60.20088297 131.58525817 -65 131 C-65.17015625 130.33613281 -65.3403125 129.67226563 -65.515625 128.98828125 C-67.41728912 122.05934548 -69.18251533 117.95056631 -75.25 113.75 C-79.10461292 111.67636875 -82.66555985 111.30417124 -87 111 C-87.09796875 110.41992188 -87.1959375 109.83984375 -87.296875 109.2421875 C-88.53847138 102.75591676 -90.48175732 98.38570359 -95.375 93.75 C-100.39258794 90.40494137 -105.00614829 89.37994637 -111 90 C-116.85476717 92.18618354 -121.10033589 95.53016055 -125.3984375 99.97265625 C-125.95947174 100.53697861 -126.52050598 101.10130096 -127.09854126 101.682724 C-128.86698638 103.46676624 -130.62074196 105.26451837 -132.375 107.0625 C-133.57334424 108.2723512 -134.77255614 109.48134363 -135.97265625 110.68945312 C-137.11536795 111.84557918 -138.25732259 113.00245411 -139.3984375 114.16015625 C-139.93173676 114.70084244 -140.46503601 115.24152863 -141.01449585 115.79859924 C-143.26944653 118.11207147 -145.2017294 120.3025941 -147 123 C-154.81594397 121.67438836 -159.79628475 113.2326878 -164.1875 107.1875 C-168.26149436 101.42771487 -171.51443288 95.62817898 -174 89 C-174.31710938 88.21625 -174.63421875 87.4325 -174.9609375 86.625 C-180.18321108 72.0601269 -177.06163827 55.15299925 -170.8203125 41.44921875 C-161.56264125 23.90732237 -145.52783968 8.90822315 -126.5 2.75390625 C-125.675 2.50511719 -124.85 2.25632813 -124 2 C-123.13890625 1.64292969 -122.2778125 1.28585938 -121.390625 0.91796875 C-116.50061805 -0.40593866 -111.79244827 -0.28893782 -106.75 -0.25 C-105.76386719 -0.25773438 -104.77773437 -0.26546875 -103.76171875 -0.2734375 C-95.1324594 -0.250699 -87.1643278 0.95437898 -79.0625 4 C-78.16660156 4.33 -77.27070313 4.66 -76.34765625 5 C-74 6 -74 6 -71 8 C-72.32900341 10.95499307 -73.77299793 13.01274778 -76.08203125 15.27734375 C-76.68466797 15.87353516 -77.28730469 16.46972656 -77.90820312 17.08398438 C-78.53662109 17.69564453 -79.16503906 18.30730469 -79.8125 18.9375 C-80.42931641 19.54529297 -81.04613281 20.15308594 -81.68164062 20.77929688 C-82.89146522 21.97112195 -84.10348834 23.16072008 -85.31787109 24.34790039 C-86.8172375 25.82050017 -88.29859756 27.31138263 -89.77734375 28.8046875 C-92 31 -92 31 -94.75 33.1875 C-97.07487388 34.80309077 -97.07487388 34.80309077 -98 37 C-98.66 37 -99.32 37 -100 37 C-100 37.66 -100 38.32 -100 39 C-100.9075 39.721875 -101.815 40.44375 -102.75 41.1875 C-106.81481192 44.49136371 -109.52819323 47.96241259 -110.34765625 53.23828125 C-110.54209996 58.26845542 -109.61006823 61.61508538 -107 66 C-106.67 66.99 -106.34 67.98 -106 69 C-103.52869082 70.15521502 -103.52869082 70.15521502 -101 71 C-100.67 71.33 -100.34 71.66 -100 72 C-83.26193764 74.12224605 -69.26427883 70.72270733 -55.8125 60.625 C-54.88179688 59.87347656 -53.95109375 59.12195313 -52.9921875 58.34765625 C-49.60048316 55.68654096 -46.07763693 53.36484089 -42.4375 51.0625 C-41.84106689 50.68496582 -41.24463379 50.30743164 -40.63012695 49.91845703 C-39.0873438 48.94469866 -37.54371825 47.97227527 -36 47 C-35.01 46.34 -34.02 45.68 -33 45 C-30.06523124 45.20239785 -28.59310764 46.27421007 -26.125 47.9375 C-19.15577653 52.53718749 -12.13022876 52.77567554 -4 52 C2.63684973 50.27795624 8.37233283 46.83561673 14 43 C13.67 41.35 13.34 39.7 13 38 C8.57993076 37.61634119 6.32056983 38.74828549 2.5625 41 C-4.21426786 44.54335328 -10.46220425 45.17721023 -18 44 C-21.39766864 42.54734407 -23.72152171 41.25705688 -26.4375 38.75 C-28.92527501 36.6810513 -28.92527501 36.6810513 -32.2109375 37.10546875 C-36.68094748 38.16075977 -39.50333166 39.92080043 -43.1875 42.5625 C-44.50640551 43.47541199 -45.82541732 44.38817044 -47.14453125 45.30078125 C-47.79373535 45.75662598 -48.44293945 46.2124707 -49.11181641 46.68212891 C-51.83672772 48.58400003 -54.60409771 50.41574074 -57.375 52.25 C-60.09475162 54.05708329 -62.80860519 55.86791062 -65.49609375 57.72265625 C-66.26050781 58.24730469 -67.02492188 58.77195313 -67.8125 59.3125 C-68.45832031 59.76238281 -69.10414063 60.21226562 -69.76953125 60.67578125 C-76.02963772 64.39237686 -80.92354287 65.52388543 -88.125 65.5 C-88.91003906 65.52835937 -89.69507813 65.55671875 -90.50390625 65.5859375 C-94.78466898 65.60037515 -96.49532153 65.39407308 -99.9765625 62.67578125 C-102.62506508 59.1734178 -103.29903417 57.41075405 -103 53 C-98.15542688 45.73476492 -90.75336699 39.53343063 -84.59545898 33.35522461 C-82.82650175 31.57657845 -81.06854708 29.78751457 -79.31054688 27.99804688 C-69.08821328 17.67976758 -58.55440855 8.6846368 -45 3 C-43.84371094 2.51273438 -42.68742188 2.02546875 -41.49609375 1.5234375 C-29.17151405 -3.19117267 -12.43555617 -5.10682062 0 0 Z " fill="#9ABFCF" transform="translate(313,176)"/>
<path d="M0 0 C3.68235148 1.67448493 6.28893337 4.15654446 7.8984375 7.86328125 C8.48496873 11.64340378 8.78538296 15.28425016 6.86691284 18.69970703 C5.36888501 20.46382224 3.79162158 22.03642099 2.09765625 23.61328125 C1.50547806 24.19746826 0.91329987 24.78165527 0.30317688 25.38354492 C-1.58242259 27.23223204 -3.49752309 29.04674987 -5.4140625 30.86328125 C-6.69139766 32.11259828 -7.96681086 33.36388359 -9.24023438 34.6171875 C-19.50805233 44.62314142 -19.50805233 44.62314142 -25.4765625 45.17578125 C-29.72344482 44.80967071 -31.12963059 43.83521316 -34.1015625 40.86328125 C-36.78980388 36.83091918 -37.02555045 33.6006771 -36.1015625 28.86328125 C-34.47053747 26.11655505 -32.59214176 23.86993967 -30.1015625 21.86328125 C-29.4415625 21.86328125 -28.7815625 21.86328125 -28.1015625 21.86328125 C-27.83988281 21.26257813 -27.57820312 20.661875 -27.30859375 20.04296875 C-26.02733451 17.72923848 -24.85349168 16.60869795 -22.7890625 14.98828125 C-20.38869725 13.02255004 -18.6495595 11.30696987 -16.6640625 8.86328125 C-12.16553487 3.59671231 -7.44362236 -1.69173235 0 0 Z " fill="#9BBFCF" transform="translate(209.1015625,273.13671875)"/>
<path d="M0 0 C4.34767205 2.32318354 6.60488941 4.83546352 8.1875 9.5 C7.75109554 17.64621661 0.04033626 23.19264232 -5.4375 28.5625 C-6.28376953 29.39974609 -7.13003906 30.23699219 -8.00195312 31.09960938 C-9.62413889 32.70401081 -11.24822518 34.3064937 -12.87451172 35.90673828 C-15.26256275 38.25858178 -17.63470745 40.62530271 -20 43 C-21.54983261 44.54983261 -23.03668378 44.28132961 -25.1875 44.375 C-28.76295703 44.35219007 -30.73188404 43.91492561 -33.5 41.625 C-36.5199479 38.4540547 -37.18907662 36.9422851 -37.375 32.6875 C-37.42398438 31.92824219 -37.47296875 31.16898437 -37.5234375 30.38671875 C-36.75558786 26.88555358 -34.56536534 25.46046443 -32 23 C-30.25606452 21.2452347 -28.51259499 19.49000623 -26.76953125 17.734375 C-25.29115534 16.24864072 -23.8123087 14.7633768 -22.33325195 13.27832031 C-21.31316404 12.25315571 -20.29396832 11.22710261 -19.27563477 10.20019531 C-17.79676883 8.70924442 -16.3147349 7.2215082 -14.83203125 5.734375 C-13.95264893 4.84975586 -13.0732666 3.96513672 -12.16723633 3.05371094 C-8.50916084 -0.41274519 -4.89991026 -0.91652998 0 0 Z " fill="#9ABFCF" transform="translate(232,295)"/>
<path d="M0 0 C3.63885828 1.9105829 6.23773156 3.79346547 7.61206055 7.77172852 C8.29021326 12.16690211 7.39320895 14.45356287 4.7890625 18.07250977 C2.27298647 20.98048439 -0.42371398 23.68779832 -3.18676758 26.36010742 C-4.9340556 28.05915071 -6.62802822 29.80096518 -8.32226562 31.55273438 C-17.4482663 40.73095359 -17.4482663 40.73095359 -23.12890625 40.8984375 C-27.58038986 39.86529801 -29.21803897 38.56438757 -32 35 C-32.33 34.67 -32.66 34.34 -33 34 C-33.55266764 30.61491068 -33.76887817 28.10648927 -31.74731445 25.19726562 C-31.1874585 24.58560547 -30.62760254 23.97394531 -30.05078125 23.34375 C-29.41543457 22.64822021 -28.78008789 21.95269043 -28.12548828 21.23608398 C-24.37050433 17.28571665 -20.55076733 13.40687605 -16.6875 9.5625 C-15.87732422 8.74845703 -15.06714844 7.93441406 -14.23242188 7.09570312 C-13.45833984 6.32291016 -12.68425781 5.55011719 -11.88671875 4.75390625 C-11.18764404 4.05595947 -10.48856934 3.3580127 -9.76831055 2.63891602 C-6.59336778 -0.30370318 -4.26920917 -0.56385782 0 0 Z " fill="#9BBFCF" transform="translate(253,315)"/>
<path d="M0 0 C0.99 0 1.98 0 3 0 C3.04898437 1.12277344 3.09796875 2.24554688 3.1484375 3.40234375 C3.39457539 18.68559909 3.39457539 18.68559909 10 32 C14.04642849 34.08122756 17.80677693 34.37234263 22.3125 34.625 C23.56675781 34.69976562 24.82101562 34.77453125 26.11328125 34.8515625 C27.06589844 34.90054688 28.01851563 34.94953125 29 35 C29 36.32 29 37.64 29 39 C28.14277344 39.03738281 27.28554688 39.07476562 26.40234375 39.11328125 C17.29349633 39.60087843 17.29349633 39.60087843 9 43 C2.17669383 50.66793873 3.46612922 64.223553 3 74 C2.01 74 1.02 74 0 74 C-0.03738281 72.90042969 -0.07476562 71.80085938 -0.11328125 70.66796875 C-0.18085104 55.75574692 -0.18085104 55.75574692 -6.5 42.875 C-10.5881971 39.80885218 -14.19720216 39.75797784 -19.1875 39.4375 C-20.45980469 39.35371094 -21.73210937 39.26992188 -23.04296875 39.18359375 C-24.01878906 39.12300781 -24.99460937 39.06242187 -26 39 C-26 37.68 -26 36.36 -26 35 C-24.83082031 34.91363281 -23.66164063 34.82726562 -22.45703125 34.73828125 C-20.90874699 34.59752814 -19.36057507 34.45553555 -17.8125 34.3125 C-16.65911133 34.23225586 -16.65911133 34.23225586 -15.48242188 34.15039062 C-11.271783 33.73474816 -9.40259519 33.3290594 -6.02734375 30.5703125 C-0.86169255 24.02118247 -0.85196247 16.14247081 -0.4375 8.125 C-0.39431641 7.34125 -0.35113281 6.5575 -0.30664062 5.75 C-0.20146649 3.83349351 -0.10032075 1.91676667 0 0 Z " fill="#9DC0D0" transform="translate(336,369)"/>
<path d="M0 0 C0.66 0 1.32 0 2 0 C2.02578125 1.07636719 2.0515625 2.15273437 2.078125 3.26171875 C2.50059417 17.08814179 2.50059417 17.08814179 7 30 C11.37393732 33.80706473 15.23141908 34.6296911 20.875 34.75 C21.56335938 34.77964844 22.25171875 34.80929688 22.9609375 34.83984375 C24.64001626 34.90980536 26.32000812 34.95725211 28 35 C28 36.32 28 37.64 28 39 C26.91460937 39.08636719 25.82921875 39.17273438 24.7109375 39.26171875 C23.2655136 39.40250679 21.82020654 39.54449795 20.375 39.6875 C19.66214844 39.74099609 18.94929688 39.79449219 18.21484375 39.84960938 C12.65099156 40.4366213 9.88110753 41.93156903 6 46 C1.70814898 54.16701747 2.30696624 64.97095858 2 74 C0.515 73.505 0.515 73.505 -1 73 C-1.03738281 71.73285156 -1.07476562 70.46570313 -1.11328125 69.16015625 C-1.17899793 67.46091069 -1.24544323 65.7616932 -1.3125 64.0625 C-1.33505859 63.23169922 -1.35761719 62.40089844 -1.38085938 61.54492188 C-1.65383407 55.16724031 -2.274854 47.91308711 -6.8125 43.0625 C-13.39645404 39.86457946 -19.77677856 39.4441463 -27 39 C-26.67 37.68 -26.34 36.36 -26 35 C-25.05898437 34.97421875 -24.11796875 34.9484375 -23.1484375 34.921875 C-13.66896021 34.76895701 -13.66896021 34.76895701 -6 30 C-1.53583639 22.91891289 -1.75827384 14.94126724 -1.39453125 6.83789062 C-1.10354983 1.10354983 -1.10354983 1.10354983 0 0 Z " fill="#9DC0D0" transform="translate(218,100)"/>
<path d="M0 0 C0.99 0.33 1.98 0.66 3 1 C3.03738281 2.26714844 3.07476562 3.53429687 3.11328125 4.83984375 C3.17899793 6.53908931 3.24544323 8.2383068 3.3125 9.9375 C3.33505859 10.76830078 3.35761719 11.59910156 3.38085938 12.45507812 C3.67806298 19.39883506 4.41814173 26.41814173 9.5 31.5 C13.71340079 34.02804048 17.34873158 34.2517534 22.1875 34.5625 C23.45980469 34.64628906 24.73210937 34.73007812 26.04296875 34.81640625 C27.01878906 34.87699219 27.99460938 34.93757813 29 35 C29 36.32 29 37.64 29 39 C27.46279297 39.05607422 27.46279297 39.05607422 25.89453125 39.11328125 C24.53381938 39.17897079 23.17314389 39.24541709 21.8125 39.3125 C21.13896484 39.33505859 20.46542969 39.35761719 19.77148438 39.38085938 C15.38494714 39.61623454 12.50291891 40.32989847 9 43 C5.20205176 47.95843243 3.95832006 51.64315304 3.68359375 57.765625 C3.64169922 58.65507812 3.59980469 59.54453125 3.55664062 60.4609375 C3.51732422 61.38132812 3.47800781 62.30171875 3.4375 63.25 C3.39431641 64.18585938 3.35113281 65.12171875 3.30664062 66.0859375 C3.2008195 68.39048641 3.09873443 70.69513839 3 73 C1.515 73.495 1.515 73.495 0 74 C-0.04898438 72.87722656 -0.09796875 71.75445312 -0.1484375 70.59765625 C-0.39457539 55.31440091 -0.39457539 55.31440091 -7 42 C-11.04642849 39.91877244 -14.80677693 39.62765737 -19.3125 39.375 C-20.56675781 39.30023438 -21.82101563 39.22546875 -23.11328125 39.1484375 C-24.06589844 39.09945312 -25.01851563 39.05046875 -26 39 C-26 37.68 -26 36.36 -26 35 C-24.89140625 34.87882812 -23.7828125 34.75765625 -22.640625 34.6328125 C-21.17703766 34.46393704 -19.71349843 34.29464428 -18.25 34.125 C-17.52039063 34.04636719 -16.79078125 33.96773438 -16.0390625 33.88671875 C-10.69674856 33.34124781 -10.69674856 33.34124781 -6 31 C-4.69745694 29.01584405 -4.69745694 29.01584405 -3.8125 26.6875 C-3.48894531 25.92824219 -3.16539063 25.16898437 -2.83203125 24.38671875 C-0.97548885 19.06114408 -0.72309384 13.77296637 -0.4375 8.1875 C-0.39431641 7.39923828 -0.35113281 6.61097656 -0.30664062 5.79882812 C-0.20121679 3.86605785 -0.10016906 1.93304974 0 0 Z " fill="#9DC0D0" transform="translate(99,369)"/>
<path d="M0 0 C4.17816355 1.18078535 5.61459172 3.18214731 7.875 6.8125 C7.74505744 9.67123639 7.14013143 11.28223714 5.875 13.8125 C5.215 13.8125 4.555 13.8125 3.875 13.8125 C3.545 14.8025 3.215 15.7925 2.875 16.8125 C0.9375 19 0.9375 19 -1.125 20.8125 C-1.785 20.8125 -2.445 20.8125 -3.125 20.8125 C-3.455 21.8025 -3.785 22.7925 -4.125 23.8125 C-5.7646721 25.17889342 -7.43610128 26.5074419 -9.125 27.8125 C-9.95 28.72 -10.775 29.6275 -11.625 30.5625 C-14.125 32.8125 -14.125 32.8125 -16.625 33.4375 C-20.33364386 32.51033903 -21.83485284 30.8224077 -24.125 27.8125 C-24.70622986 24.25246708 -24.55796709 22.56035225 -22.75 19.4375 C-22.21375 18.90125 -21.6775 18.365 -21.125 17.8125 C-20.465 17.8125 -19.805 17.8125 -19.125 17.8125 C-18.795 16.8225 -18.465 15.8325 -18.125 14.8125 C-16.5234375 13.234375 -16.5234375 13.234375 -14.5 11.5625 C-11.61227037 9.14402643 -9.03184207 6.66115656 -6.5 3.875 C-4.15715264 1.52150333 -3.31649826 0.86228955 0 0 Z " fill="#9CC0CF" transform="translate(269.125,334.1875)"/>
<path d="M0 0 C0.66 0 1.32 0 2 0 C2.02578125 0.99 2.0515625 1.98 2.078125 3 C2.36414872 10.45927213 2.77901209 16.60456377 7 23 C9.70183055 24.35091528 12.11808206 24.33858058 15.125 24.5625 C16.76855469 24.68818359 16.76855469 24.68818359 18.4453125 24.81640625 C19.70988281 24.90728516 19.70988281 24.90728516 21 25 C21 25.99 21 26.98 21 28 C20.26394531 28.02578125 19.52789062 28.0515625 18.76953125 28.078125 C12.58378397 28.41572964 12.58378397 28.41572964 6.9375 30.75 C3.03478887 35.28218066 2.64137727 40.01324479 2.375 45.8125 C2.33632813 46.50537109 2.29765625 47.19824219 2.2578125 47.91210938 C2.16426432 49.60767015 2.08107636 51.30379712 2 53 C1.34 53 0.68 53 0 53 C-0.12117188 51.75863281 -0.24234375 50.51726562 -0.3671875 49.23828125 C-0.53607548 47.59631474 -0.7053676 45.95438977 -0.875 44.3125 C-0.95363281 43.49587891 -1.03226562 42.67925781 -1.11328125 41.83789062 C-1.23896484 40.64389648 -1.23896484 40.64389648 -1.3671875 39.42578125 C-1.44050293 38.69786377 -1.51381836 37.96994629 -1.58935547 37.2199707 C-2.02350899 34.46680425 -2.02350899 34.46680425 -4 30 C-11.425 29.01 -11.425 29.01 -19 28 C-19 27.01 -19 26.02 -19 25 C-18.18015625 24.97421875 -17.3603125 24.9484375 -16.515625 24.921875 C-14.89914062 24.83679688 -14.89914062 24.83679688 -13.25 24.75 C-12.18265625 24.70359375 -11.1153125 24.6571875 -10.015625 24.609375 C-6.41146864 23.88107397 -5.22888689 22.8753158 -3 20 C-0.78908885 13.4836303 -0.43299126 6.83670404 0 0 Z " fill="#A0C2D1" transform="translate(288,84)"/>
<path d="M0 0 C0.66 0 1.32 0 2 0 C2.03738281 1.08539063 2.07476562 2.17078125 2.11328125 3.2890625 C2.17897875 4.73440739 2.24542476 6.17971839 2.3125 7.625 C2.33505859 8.33785156 2.35761719 9.05070312 2.38085938 9.78515625 C2.61900124 14.50469507 3.41563668 17.91167228 6 22 C9.90970072 24.60646715 12.99950297 24.41467207 17.6015625 24.65625 C18.39304687 24.7696875 19.18453125 24.883125 20 25 C20.495 25.99 20.495 25.99 21 27 C19.78763672 27.14695312 19.78763672 27.14695312 18.55078125 27.296875 C10.41407385 28.25812432 10.41407385 28.25812432 4 33 C3.13580777 35.59257669 2.82419068 37.34037707 2.68359375 40.01171875 C2.64169922 40.76904297 2.59980469 41.52636719 2.55664062 42.30664062 C2.51732422 43.09232422 2.47800781 43.87800781 2.4375 44.6875 C2.39431641 45.48478516 2.35113281 46.28207031 2.30664062 47.10351562 C2.20072632 49.06881447 2.09987449 51.03438496 2 53 C1.34 53 0.68 53 0 53 C-0.08564209 52.40985107 -0.17128418 51.81970215 -0.25952148 51.21166992 C-0.64935599 48.53652607 -1.04338014 45.86201571 -1.4375 43.1875 C-1.57220703 42.25873047 -1.70691406 41.32996094 -1.84570312 40.37304688 C-2.04389648 39.0340332 -2.04389648 39.0340332 -2.24609375 37.66796875 C-2.36654053 36.84578857 -2.4869873 36.0236084 -2.61108398 35.17651367 C-2.97617892 32.83075943 -2.97617892 32.83075943 -4 30 C-9.28 29.01 -14.56 28.02 -20 27 C-19.67 26.34 -19.34 25.68 -19 25 C-15.71093136 24.4291699 -12.42131128 24.10377302 -9.1015625 23.7578125 C-5.94565733 23.27595313 -5.94565733 23.27595313 -4.15625 21.1171875 C-0.56265693 14.53702721 -0.45781817 7.33713857 0 0 Z " fill="#A0C2D1" transform="translate(407,353)"/>
<path d="M0 0 C0.33 0 0.66 0 1 0 C1.14695313 1.73636719 1.14695313 1.73636719 1.296875 3.5078125 C1.44703585 5.04696119 1.59812691 6.58601932 1.75 8.125 C1.811875 8.88554687 1.87375 9.64609375 1.9375 10.4296875 C2.48326558 15.70542144 3.6298599 18.87093522 7 23 C10.28889042 24.64444521 13.93324687 24.3990411 17.56640625 24.62109375 C18.77103516 24.80865234 18.77103516 24.80865234 20 25 C20.495 25.99 20.495 25.99 21 27 C19.66195312 27.14695312 19.66195312 27.14695312 18.296875 27.296875 C17.12640625 27.44640625 15.9559375 27.5959375 14.75 27.75 C13.58984375 27.88921875 12.4296875 28.0284375 11.234375 28.171875 C7.60139477 29.10205834 6.28882709 30.08350402 4 33 C1.42127713 39.37894606 1.38900985 46.19232762 1 53 C0.34 52.67 -0.32 52.34 -1 52 C-1.26555047 48.71096777 -1.36661901 45.46383815 -1.390625 42.16601562 C-1.56049385 37.05579443 -2.58857756 34.03223985 -6 30 C-10.54486146 28.19920584 -15.16075781 27.59256027 -20 27 C-19.67 26.34 -19.34 25.68 -19 25 C-15.71093136 24.4291699 -12.42131128 24.10377302 -9.1015625 23.7578125 C-5.9608819 23.27076896 -5.9608819 23.27076896 -4.15625 21.1875 C-0.78351543 14.80665081 -0.56143591 7.07704735 0 0 Z " fill="#9EC1D0" transform="translate(170,353)"/>
<path d="M0 0 C1.70884005 1.62339805 3.37446717 3.29319053 5 5 C5 5.66 5 6.32 5 7 C3.37373596 8.38232443 1.7074998 9.71937515 0 11 C-0.66 9.68 -1.32 8.36 -2 7 C-2.66 7 -3.32 7 -4 7 C-2.79618552 4.50638429 -1.54571278 2.31856917 0 0 Z " fill="#A1C3D1" transform="translate(268,151)"/>
<path d="M0 0 C0.66 0 1.32 0 2 0 C3.625 2 3.625 2 5 4 C4 6 3 8 2 10 C1.34 10 0.68 10 0 10 C-1.625 8 -1.625 8 -3 6 C-2 4 -1 2 0 0 Z " fill="#A0C2D1" transform="translate(358,363)"/>
<path d="M0 0 C0.66 0 1.32 0 2 0 C2.99 1.98 3.98 3.96 5 6 C3.35 7.65 1.7 9.3 0 11 C-0.28875 10.195625 -0.5775 9.39125 -0.875 8.5625 C-1.73262568 5.8673532 -1.73262568 5.8673532 -4 5 C-3.525625 4.54625 -3.05125 4.0925 -2.5625 3.625 C-0.90972192 2.06741796 -0.90972192 2.06741796 0 0 Z " fill="#A1C2D1" transform="translate(149,420)"/>
<path d="M0 0 C1.65 1.65 3.3 3.3 5 5 C4.01 5.495 4.01 5.495 3 6 C2.27840576 7.64363134 1.60648579 9.31050386 1 11 C-0.65 9.35 -2.3 7.7 -4 6 C-2.68 4.02 -1.36 2.04 0 0 Z " fill="#9FC2D1" transform="translate(240,94)"/>
<path d="M0 0 C0.99 0.66 1.98 1.32 3 2 C3 2.66 3 3.32 3 4 C3.66 4 4.32 4 5 4 C3.63016497 7.16115776 3.0109362 7.9927092 0 10 C-0.99 8.68 -1.98 7.36 -3 6 C-2 4 -1 2 0 0 Z " fill="#9FC2D0" transform="translate(121,363)"/>
<path d="M0 0 C0.66 0 1.32 0 2 0 C3.625 2.5 3.625 2.5 5 5 C4.01 6.32 3.02 7.64 2 9 C-1 8 -1 8 -2.1875 5.9375 C-2.455625 5.298125 -2.72375 4.65875 -3 4 C-1.625 2 -1.625 2 0 0 Z " fill="#9DC0D0" transform="translate(386,421)"/>
</svg>
